# xmcd
#
# Track frame offsets:
# 150
# 12552
# 26930
# 39660
# 50345
# 63655
# 72409
# 85054
# 97921
# 110444
# 119073
# 131782
# 143365
# 155827
# 168151
# 176724
# 192543
# 207227
# 218952
#
# Disc length: 3039 seconds
#
#
# Revision: 0
# Processed by: cddbd v1.5.2PL0 Copyright (c) Steve Scherf et al.
# Submitted via: FreeRIP 2.944 
#
DISCID=210bdd13
DTITLE=Tercilio Men - Reliquias Musicais 
DYEAR=2006
DGENRE=Country
TTITLE0=Quarto Centenário
TTITLE1=Maringá
TTITLE2=Bolero do Amor
TTITLE3=Brasileirinho
TTITLE4=Saudade do Matão
TTITLE5=Verde Amarelo
TTITLE6=Boate Azul
TTITLE7=Tai
TTITLE8=Saudade ouro preto
TTITLE9=A Banda
TTITLE10=Sou gaucho
TTITLE11=Subindo ao ceu
TTITLE12=Bate o pe
TTITLE13=Arapongas
TTITLE14=Ligeirinho
TTITLE15=Sou Psicodelico
TTITLE16=Pe de Jaca
TTITLE17=O amor e lindo
TTITLE18=Homenagem aos pioneiros
EXTD=
EXTT0=
EXTT1=
EXTT2=
EXTT3=
EXTT4=
EXTT5=
EXTT6=
EXTT7=
EXTT8=
EXTT9=
EXTT10=
EXTT11=
EXTT12=
EXTT13=
EXTT14=
EXTT15=
EXTT16=
EXTT17=
EXTT18=
PLAYORDER=
